# xmcd
#
# Track frame offsets: 
#        150
#        29101
#        59702
#        92253
#        116404
#        138830
#        152931
#        182857
#        204083
#        226584
#        260935
#        271736
#
# Disc length: 3861 seconds
#
# Revision: 0
# Processed by: cddbd v1.5.2PL0 Copyright (c) Steve Scherf et al.
# Submitted via: ExactAudioCopy v0.99pb4
#
DISCID=a30f130c
DTITLE=Joe Bonamassa - The Ballad Of John Henry
DYEAR=2009
DGENRE=Blues
TTITLE0=The Ballad Of John Henry
TTITLE1=Stop!
TTITLE2=Last Kiss
TTITLE3=Jockey Full Of Bourbon
TTITLE4=Story Of A Quarryman
TTITLE5=Lonesome Road Blues
TTITLE6=Happier Times
TTITLE7=Feelin' Good
TTITLE8=Funkier Than A Mosquito's Tweeter
TTITLE9=The Great Flood
TTITLE10=From The Valley
TTITLE11=As The Crow Flies
EXTD=
EXTT0=
EXTT1=
EXTT2=
EXTT3=
EXTT4=
EXTT5=
EXTT6=
EXTT7=
EXTT8=
EXTT9=
EXTT10=
EXTT11=
PLAYORDER=
